<svg width="40" height="40" viewBox="0 0 40 40" fill="none" xmlns="http://www.w3.org/2000/svg">
<path d="M6.54875 29.6926L5.95788 32.4205C5.80703 33.1497 6.10874 33.8788 6.7373 34.2811C7.02644 34.4697 7.36587 34.5576 7.69272 34.5576C8.06986 34.5576 8.43445 34.4445 8.74871 34.2057L11.967 31.8171H14.0664C15.8389 31.8171 17.5109 31.5028 19.0193 30.9371C11.0239 29.6172 4.98971 23.8972 4.98971 17.0709V17.0206C3.36803 18.5794 2.40002 20.5783 2.40002 22.7282C2.40002 25.431 3.93372 27.9828 6.54835 29.6925L6.54875 29.6926Z" fill="white"/>
<path d="M22.5523 5.44229C14.2552 5.44229 7.50452 10.6595 7.50452 17.0706C7.50452 23.4947 14.2552 28.7119 22.5523 28.7119H25.4688L31.2894 33.0488C31.5157 33.2123 31.7797 33.3003 32.0437 33.3003C32.2825 33.3003 32.5088 33.2374 32.7225 33.0991C33.1625 32.8226 33.3762 32.2946 33.2757 31.7792L32.0437 26.1223C35.5385 23.9223 37.6 20.6034 37.6 17.071C37.6 10.6594 30.8493 5.44229 22.5523 5.44229ZM27.5808 21.7725H17.5237C16.8323 21.7725 16.2666 21.2068 16.2666 20.5154C16.2666 19.8239 16.8323 19.2582 17.5237 19.2582H27.5808C28.2722 19.2582 28.8379 19.8239 28.8379 20.5154C28.8379 21.2068 28.2722 21.7725 27.5808 21.7725ZM27.5808 14.8959H17.5237C16.8323 14.8959 16.2666 14.3302 16.2666 13.6388C16.2666 12.9473 16.8323 12.3816 17.5237 12.3816H27.5808C28.2722 12.3816 28.8379 12.9473 28.8379 13.6388C28.8379 14.3302 28.2722 14.8959 27.5808 14.8959Z" fill="white"/>
</svg>
