<svg width="30" height="30" viewBox="0 0 30 30" fill="none" xmlns="http://www.w3.org/2000/svg">
    <path d="M17.9241 25.9936L16.1713 27.7471C15.667 28.2514 14.8467 28.2508 14.3424 27.7471L10.6101 24.0142L12.4739 22.1504L15.4811 25.1576C15.9104 25.5875 16.6593 25.5875 17.0881 25.1576C17.2502 24.9961 17.532 24.9961 17.6935 25.1576L17.9241 25.3888C18.0909 25.5556 18.0909 25.8269 17.9241 25.9936Z" fill="white"/>
    <path d="M20.4021 11.8106L16.7297 8.13821C17.1829 7.7931 17.7325 7.6037 18.3118 7.6037H18.3129C19.0142 7.6037 19.6736 7.87792 20.1692 8.3735C21.1051 9.31122 21.1807 10.7852 20.4021 11.8106Z" fill="white"/>
    <path d="M22.9398 16.0652C22.8689 16.4486 22.6237 16.7589 22.2676 16.9169L12.5529 21.2272L7.31299 15.9873L11.6233 6.27207C11.7813 5.91592 12.0916 5.67075 12.4745 5.59987C12.8579 5.52899 13.235 5.64577 13.5104 5.92115L15.9546 8.36536C15.9546 8.36536 15.9569 8.36885 15.9586 8.37059C15.9598 8.37233 15.9621 8.37291 15.9639 8.37466L20.1656 12.5763C20.1656 12.5763 20.1679 12.5804 20.1696 12.5822C20.1714 12.5839 20.1737 12.5845 20.1754 12.5862L22.6185 15.0293C22.8939 15.3047 23.0112 15.6829 22.9398 16.0652Z" fill="white"/>
    <path d="M11.9731 21.6496L9.85885 23.7638L9.85768 23.765L8.85548 24.7678C8.37036 25.2523 7.5808 25.2523 7.0951 24.7678L6.5786 24.2507L5.43464 23.1061L3.77302 21.4445C3.2879 20.9594 3.2879 20.1698 3.77302 19.6847L6.89059 16.5671L9.4324 19.1084L11.9736 21.6496H11.9731Z" fill="white"/>
    <path d="M5.8268 24.501L5.26731 25.06C4.77463 25.5526 3.97287 25.5526 3.47961 25.06C2.98694 24.5673 2.98694 23.7649 3.47961 23.2723L4.0391 22.7133L5.8268 24.501Z" fill="white"/>
    <path d="M21.1227 2.58386C23.912 2.58386 26.1814 4.85203 26.1814 7.63902C26.1814 7.83481 26.34 7.99342 26.5358 7.99342C26.7315 7.99342 26.8902 7.83481 26.8902 7.63902C26.8902 4.46103 24.303 1.87564 21.1227 1.87506C20.9269 1.87506 20.7683 2.03367 20.7683 2.22946C20.7683 2.42525 20.9269 2.58386 21.1227 2.58386Z" fill="white"/>
    <path d="M21.1226 4.85199C22.6616 4.85199 23.9143 6.10227 23.9143 7.63898C23.9143 7.83477 24.0729 7.99338 24.2687 7.99338C24.4644 7.99338 24.6231 7.83477 24.6231 7.63898C24.6231 5.71185 23.0532 4.14319 21.1232 4.14319C20.9274 4.14319 20.7688 4.3018 20.7688 4.49759C20.7688 4.69338 20.9274 4.85199 21.1232 4.85199H21.1226Z" fill="white"/>
    <path d="M21.122 7.12012C21.4113 7.12012 21.646 7.35309 21.646 7.63894C21.646 7.83473 21.8046 7.99334 22.0004 7.99334C22.1962 7.99334 22.3548 7.83473 22.3548 7.63894C22.3548 6.96209 21.8017 6.41132 21.122 6.41132C20.9262 6.41132 20.7676 6.56993 20.7676 6.76572C20.7676 6.96151 20.9262 7.12012 21.122 7.12012Z" fill="white"/>
</svg>
