<svg width="24" height="23" viewBox="0 0 24 23" fill="none" xmlns="http://www.w3.org/2000/svg">
    <path d="M22.7868 18.9987L22.4993 18.6512C21.2118 17.0925 20.4306 16.1512 20.4306 11.7375C20.4306 9.4525 19.8843 7.5775 18.8056 6.17125C18.0118 5.13125 16.9381 4.34375 15.5231 3.76125C15.5047 3.75131 15.4882 3.73819 15.4743 3.7225C14.9656 2.0175 13.5718 0.875 12.0006 0.875C10.4306 0.875 9.03809 2.0175 8.52809 3.72C8.51444 3.73504 8.49839 3.74771 8.48059 3.7575C5.17559 5.12 3.57059 7.72875 3.57059 11.7362C3.57059 16.1525 2.79184 17.0938 1.50184 18.65L1.21434 18.9987C0.963382 19.3018 0.804467 19.6704 0.756398 20.061C0.708328 20.4515 0.773115 20.8476 0.943094 21.2025C1.30434 21.965 2.07434 22.4375 2.95434 22.4375H21.0543C21.9293 22.4375 22.6943 21.965 23.0568 21.2062C23.2274 20.8511 23.2926 20.4546 23.2447 20.0636C23.1968 19.6726 23.038 19.3035 22.7868 19V18.9987Z" fill="white"/>
</svg>
